<svg xmlns="http://www.w3.org/2000/svg" width="24.596" height="23.526" viewBox="0 0 24.596 23.526">
  <g id="shop" transform="translate(-32.691 -42.469)">
    <path id="Path_3317" data-name="Path 3317" d="M56.894,48.722h0L55.061,43.8a1.742,1.742,0,0,0-1.625-1.129H36.542a1.742,1.742,0,0,0-1.625,1.13l-1.832,4.923a2.781,2.781,0,0,0-.061,1.833,3.461,3.461,0,0,0,2.137,2.177V62.9a2.894,2.894,0,0,0,2.891,2.891H51.927A2.894,2.894,0,0,0,54.818,62.9V52.731a3.461,3.461,0,0,0,2.137-2.177A2.778,2.778,0,0,0,56.894,48.722Zm-6.763-.57a4.043,4.043,0,0,1,.062.7v.607a2.313,2.313,0,1,1-4.625,0V43.825h3.8Zm-10.345.7a4.044,4.044,0,0,1,.062-.7l.764-4.326h3.8v5.637a2.313,2.313,0,0,1-4.625,0ZM34.122,50.19a1.622,1.622,0,0,1,.047-1.066L36,44.2a.581.581,0,0,1,.542-.377h2.894l-.728,4.126a5.211,5.211,0,0,0-.079.9v.607a2.313,2.313,0,0,1-4.508.728ZM53.661,62.9a1.736,1.736,0,0,1-1.734,1.734H38.052A1.736,1.736,0,0,1,36.317,62.9V52.931a3.469,3.469,0,0,0,2.891-1.553,3.467,3.467,0,0,0,5.781,0,3.467,3.467,0,0,0,5.781,0,3.469,3.469,0,0,0,2.891,1.553Zm2.2-12.713a2.313,2.313,0,0,1-4.508-.728v-.607a5.211,5.211,0,0,0-.079-.9l-.728-4.126h2.894a.581.581,0,0,1,.542.376l1.832,4.923A1.62,1.62,0,0,1,55.857,50.19Z" transform="translate(0 0)" fill="#0d6efd" stroke="#0d6efd" strokeWidth="0.4"/>
    <path id="Path_3318" data-name="Path 3318" d="M168.528,243.437l-2.861-.619-1.473-2.529a.578.578,0,0,0-1,0l-1.473,2.529-2.861.619a.578.578,0,0,0-.309.95l1.951,2.183-.3,2.912a.578.578,0,0,0,.809.587l2.678-1.18,2.678,1.18a.578.578,0,0,0,.809-.587l-.3-2.912,1.95-2.183a.578.578,0,0,0-.309-.95Zm-2.673,2.553a.58.58,0,0,0-.144.443l.22,2.178-2-.883a.578.578,0,0,0-.466,0l-2,.883.221-2.178a.58.58,0,0,0-.144-.443l-1.459-1.632,2.14-.463a.579.579,0,0,0,.377-.274l1.1-1.892,1.1,1.892a.579.579,0,0,0,.377.274l2.14.463Z" transform="translate(-118.705 -186.636)" fill="#0d6efd" stroke="#0d6efd" strokeWidth="0.4"/>
  </g>
</svg>
