<svg xmlns="http://www.w3.org/2000/svg" width="23.26" height="26.151" viewBox="0 0 23.26 26.151">
  <path id="shopping-bag" d="M33.966,18.007a.615.615,0,0,0-.615-.535H29.962v-1.23a5.081,5.081,0,0,0-10.162,0v1.23H16.4a.615.615,0,0,0-.615.535l-2.282,17.31a.615.615,0,0,0,.16.5c.258.277.541.56.849.837a.615.615,0,0,0,.412.16H34.834a.615.615,0,0,0,.412-.16,9.967,9.967,0,0,0,.849-.837.615.615,0,0,0,.16-.5ZM21.048,16.229a3.851,3.851,0,1,1,7.7,0v1.23H21.03ZM34.582,35.581H15.168l-.406-.394L16.939,18.7H32.816l2.178,16.486Z" transform="translate(-13.251 -10.91)" fill="#01060d" stroke="#01060d" strokeWidth="0.5"/>
</svg>
