<svg xmlns="http://www.w3.org/2000/svg" width="18.021" height="12.992" viewBox="0 0 18.021 12.992">
  <g id="shuffle" transform="translate(-2.5 -8.498)">
    <path id="Path_3315" data-name="Path 3315" d="M7.206,8.579a.63.63,0,0,0-.637.013L2.8,10.9a.63.63,0,0,0,0,1.073l3.772,2.3a.614.614,0,0,0,.327.092.606.606,0,0,0,.306-.08.638.638,0,0,0,.323-.549V12.061h9.22a2.516,2.516,0,0,1,2.514,2.514.629.629,0,1,0,1.257,0A3.777,3.777,0,0,0,16.749,10.8H7.529V9.128a.629.629,0,0,0-.323-.549Zm-.935,4.04L4.336,11.433l1.936-1.186Z" transform="translate(0)" fill="#808386"/>
    <path id="Path_3316" data-name="Path 3316" d="M20.219,26.735l-3.772-2.3a.63.63,0,0,0-.96.536v1.676H6.268a2.516,2.516,0,0,1-2.514-2.514.627.627,0,1,0-1.253,0A3.777,3.777,0,0,0,6.272,27.9h9.22v1.676a.629.629,0,0,0,.323.549.627.627,0,0,0,.633-.013l3.772-2.3a.628.628,0,0,0,0-1.073Zm-3.47,1.722V26.09l1.936,1.186Z" transform="translate(0 -8.715)" fill="#808386"/>
  </g>
</svg>
