<svg xmlns="http://www.w3.org/2000/svg" width="33.807" height="22" viewBox="0 0 33.807 22">
  <path id="coupon" d="M37.108,100.177a.8.8,0,0,0,.7-.8V93.822A1.813,1.813,0,0,0,36,92.011H5.811A1.813,1.813,0,0,0,4,93.822v5.557a.8.8,0,0,0,.7.8,2.859,2.859,0,0,1,0,5.668.8.8,0,0,0-.7.8V112.2a1.813,1.813,0,0,0,1.811,1.811H36a1.813,1.813,0,0,0,1.811-1.811v-5.557a.8.8,0,0,0-.7-.8,2.859,2.859,0,0,1,0-5.668ZM36.2,107.29v4.91a.2.2,0,0,1-.2.2h-20.2v-1.588a.8.8,0,1,0-1.61,0V112.4H5.811a.2.2,0,0,1-.2-.2v-4.91a4.47,4.47,0,0,0,0-8.558v-4.91a.2.2,0,0,1,.2-.2h8.372v1.588a.8.8,0,0,0,1.61,0V93.621H36a.2.2,0,0,1,.2.2v4.91a4.47,4.47,0,0,0,0,8.558Zm-20.4-8.475v2.393a.8.8,0,1,1-1.61,0V98.815a.8.8,0,0,1,1.61,0Zm0,6v2.393a.8.8,0,1,1-1.61,0v-2.393a.8.8,0,0,1,1.61,0Zm8.572-4.851a2.61,2.61,0,1,0-2.61,2.61A2.613,2.613,0,0,0,24.365,99.963Zm-3.609,0a1,1,0,1,1,1,1A1,1,0,0,1,20.756,99.963ZM29.015,98.9l-6.091,9a.8.8,0,1,1-1.333-.9l6.091-9a.8.8,0,1,1,1.333.9Zm-.136,4.55a2.61,2.61,0,1,0,2.61,2.61A2.613,2.613,0,0,0,28.879,103.449Zm0,3.609a1,1,0,1,1,1-1A1,1,0,0,1,28.879,107.058Z" transform="translate(-4 -92.011)" fill="#fff"/>
</svg>
