<svg xmlns="http://www.w3.org/2000/svg" width="26.879" height="28.013" viewBox="0 0 26.879 28.013">
  <g id="discount_1_" data-name="discount (1)" transform="translate(-10.359 0.002)">
    <g id="Group_12175" data-name="Group 12175" transform="translate(10.359 -0.002)">
      <g id="Group_12174" data-name="Group 12174" transform="translate(0 0)">
        <path id="Path_3309" data-name="Path 3309" d="M35.942,14.367a.821.821,0,0,1,0-.726L36.987,11.5a2.432,2.432,0,0,0-1.049-3.229l-2.1-1.115a.821.821,0,0,1-.427-.587L33,4.23a2.432,2.432,0,0,0-2.747-2L27.9,2.567a.821.821,0,0,1-.69-.224L25.5.689a2.432,2.432,0,0,0-3.4,0l-1.71,1.654a.821.821,0,0,1-.69.224l-2.355-.333a2.432,2.432,0,0,0-2.747,2l-.411,2.343a.821.821,0,0,1-.426.587l-2.1,1.115A2.432,2.432,0,0,0,10.61,11.5l1.045,2.137a.821.821,0,0,1,0,.726L10.61,16.5a2.432,2.432,0,0,0,1.049,3.229l2.1,1.115a.821.821,0,0,1,.427.587l.411,2.343A2.43,2.43,0,0,0,17,25.8a2.5,2.5,0,0,0,.35-.025l2.355-.333a.821.821,0,0,1,.69.224L22.1,27.32a2.432,2.432,0,0,0,3.4,0l1.71-1.654a.822.822,0,0,1,.69-.224l2.355.333a2.432,2.432,0,0,0,2.747-2l.411-2.343a.821.821,0,0,1,.426-.587l2.1-1.115A2.432,2.432,0,0,0,36.987,16.5ZM20.567,6.734A2.962,2.962,0,1,1,17.605,9.7,2.965,2.965,0,0,1,20.567,6.734ZM19.038,19.907A.808.808,0,0,1,17.9,18.765L28.559,8.1A.808.808,0,0,1,29.7,9.244Zm7.991,1.368a2.962,2.962,0,1,1,2.962-2.962A2.965,2.965,0,0,1,27.03,21.275Z" transform="translate(-10.359 0.002)" fill="#ef262c"/>
      </g>
    </g>
    <g id="Group_12177" data-name="Group 12177" transform="translate(25.683 16.966)">
      <g id="Group_12176" data-name="Group 12176" transform="translate(0)">
        <path id="Path_3310" data-name="Path 3310" d="M291.8,310.141a1.346,1.346,0,1,0,1.346,1.346A1.348,1.348,0,0,0,291.8,310.141Z" transform="translate(-290.452 -310.141)" fill="#ef262c"/>
      </g>
    </g>
    <g id="Group_12179" data-name="Group 12179" transform="translate(19.221 8.35)">
      <g id="Group_12178" data-name="Group 12178">
        <path id="Path_3311" data-name="Path 3311" d="M173.679,152.646a1.346,1.346,0,1,0,1.346,1.346A1.348,1.348,0,0,0,173.679,152.646Z" transform="translate(-172.333 -152.646)" fill="#ef262c"/>
      </g>
    </g>
  </g>
</svg>
