<svg xmlns="http://www.w3.org/2000/svg" width="29.817" height="29.846" viewBox="0 0 29.817 29.846">
  <path id="filter_1_" data-name="filter (1)" d="M.919,4.952h14a4.281,4.281,0,0,0,8.363,0H28.5a.919.919,0,0,0,0-1.839h-5.22a4.281,4.281,0,0,0-8.362,0h-14a.919.919,0,1,0,0,1.839Zm15.736-.917s0-.007,0-.01a2.442,2.442,0,0,1,4.884,0v.014a2.442,2.442,0,0,1-4.885,0ZM28.5,24h-5.22a4.281,4.281,0,0,0-8.362,0h-14a.919.919,0,0,0,0,1.839h14a4.281,4.281,0,0,0,8.363,0H28.5A.919.919,0,0,0,28.5,24Zm-9.4,3.362a2.445,2.445,0,0,1-2.442-2.437v0s0-.007,0-.01a2.442,2.442,0,0,1,4.884,0v.014A2.445,2.445,0,0,1,19.1,27.359Zm9.4-13.8h-14a4.281,4.281,0,0,0-8.363,0H.919a.919.919,0,0,0,0,1.839h5.22a4.281,4.281,0,0,0,8.362,0h14a.919.919,0,0,0,0-1.839Zm-15.736.917s0,.007,0,.01a2.442,2.442,0,0,1-4.884,0v-.013a2.442,2.442,0,0,1,4.885,0Z" transform="translate(0.2 0.448)" fill="#01060d" stroke="#01060d" strokeWidth="0.4"/>
</svg>
