<svg xmlns="http://www.w3.org/2000/svg" className="text-[#808386]" width="29.032" height="25.851" viewBox="0 0 29.032 25.851">
  <path id="heart_1_" data-name="heart (1)" d="M14.416,25.651a1.691,1.691,0,0,1-1.115-.419c-1.165-1.018-2.288-1.976-3.278-2.82l-.005,0A60.975,60.975,0,0,1,2.86,15.689,10.732,10.732,0,0,1,0,8.665,9.012,9.012,0,0,1,2.287,2.51,7.753,7.753,0,0,1,8.054,0a7.252,7.252,0,0,1,4.53,1.564,9.268,9.268,0,0,1,1.831,1.912,9.269,9.269,0,0,1,1.832-1.912A7.252,7.252,0,0,1,20.778,0a7.753,7.753,0,0,1,5.767,2.51,9.011,9.011,0,0,1,2.287,6.155,10.73,10.73,0,0,1-2.859,7.024,60.961,60.961,0,0,1-7.158,6.719c-.993.846-2.117,1.8-3.285,2.825A1.692,1.692,0,0,1,14.416,25.651ZM8.054,1.689A6.083,6.083,0,0,0,3.529,3.655a7.331,7.331,0,0,0-1.84,5.01A9.03,9.03,0,0,0,4.16,14.612a60,60,0,0,0,6.953,6.511l.005,0c.994.848,2.122,1.808,3.3,2.834,1.18-1.028,2.309-1.99,3.306-2.839a60.013,60.013,0,0,0,6.953-6.511,9.03,9.03,0,0,0,2.471-5.947,7.331,7.331,0,0,0-1.84-5.01,6.082,6.082,0,0,0-4.525-1.966,5.6,5.6,0,0,0-3.5,1.211,8.2,8.2,0,0,0-1.949,2.255,1.066,1.066,0,0,1-1.831,0A8.188,8.188,0,0,0,11.551,2.9,5.6,5.6,0,0,0,8.054,1.689Zm0,0" transform="translate(0.1 0.1)" fill="#01060d" stroke="#01060d" strokeWidth="0.2"/>
</svg>
