<svg xmlns="http://www.w3.org/2000/svg" width="32.121" height="29.445" viewBox="0 0 32.121 29.445">
  <g id="image-gallery" transform="translate(-0.001 -2)">
    <g id="Group_12385" data-name="Group 12385" transform="translate(5.353 2)">
      <path id="Path_3330" data-name="Path 3330" d="M30.768,5.011V20.4a3.016,3.016,0,0,1-3.011,3.011H7.011a3.535,3.535,0,0,1-.388-.027,3,3,0,0,1-2.61-2.744L4,20.4V5.011A3.016,3.016,0,0,1,7.011,2H27.757a3.016,3.016,0,0,1,3.011,3.011Z" transform="translate(-4 -2)" fill="#eceff1"/>
      <path id="Path_3331" data-name="Path 3331" d="M17.552,2H7.011A3.016,3.016,0,0,0,4,5.011V20.4l.013.241a3,3,0,0,0,2.61,2.744,3.535,3.535,0,0,0,.388.027h10.54Z" transform="translate(-4 -2)" fill="#cdd0d2"/>
    </g>
    <g id="Group_12386" data-name="Group 12386" transform="translate(7.977 8.92)">
      <path id="Path_3332" data-name="Path 3332" d="M30.105,14.893v3.761a3.016,3.016,0,0,1-3.011,3.011H6.348a3.536,3.536,0,0,1-.388-.027L19.746,7.853a2.359,2.359,0,0,1,3.319,0Z" transform="translate(-5.96 -7.17)" fill="#388e3c"/>
      <path id="Path_3333" data-name="Path 3333" d="M21.292,7.172a2.341,2.341,0,0,0-1.546.68L5.96,21.638a3.535,3.535,0,0,0,.388.027H21.292Z" transform="translate(-5.96 -7.169)" fill="#317c34"/>
    </g>
    <path id="Path_3334" data-name="Path 3334" d="M22.815,20.481H7.008a3.536,3.536,0,0,1-.388-.027A3,3,0,0,1,4.01,17.71l6.358-6.358a2.359,2.359,0,0,1,3.319,0Z" transform="translate(1.357 2.934)" fill="#4caf50"/>
    <path id="Path_3335" data-name="Path 3335" d="M12.027,10.67a2.34,2.34,0,0,0-1.66.683L4.01,17.71a3,3,0,0,0,2.61,2.744,3.536,3.536,0,0,0,.388.027H12.1V10.671Z" transform="translate(1.357 2.934)" fill="#429846"/>
    <path id="Path_3336" data-name="Path 3336" d="M9.677,5a2.677,2.677,0,1,0,2.677,2.677A2.68,2.68,0,0,0,9.677,5Z" transform="translate(2.369 1.015)" fill="#ffc107"/>
    <path id="Path_3337" data-name="Path 3337" d="M9.677,5a2.677,2.677,0,1,0,0,5.354H9.76V5H9.677Z" transform="translate(2.369 1.015)" fill="#dea806"/>
    <path id="Path_3338" data-name="Path 3338" d="M8.365,23.076a5.011,5.011,0,0,1-4.741-3.414l-.047-.154a4.882,4.882,0,0,1-.232-1.451V8.933L.1,19.77A3.04,3.04,0,0,0,2.23,23.458L22.926,29a3.069,3.069,0,0,0,.771.1,2.984,2.984,0,0,0,2.892-2.188l1.2-3.835Z" transform="translate(0 2.346)" fill="#eceff1"/>
    <path id="Path_3339" data-name="Path 3339" d="M3.346,8.933.1,19.77A3.04,3.04,0,0,0,2.23,23.458l10.152,2.718,1.025-3.1H8.365a5.011,5.011,0,0,1-4.741-3.414l-.047-.154a4.882,4.882,0,0,1-.232-1.451Z" transform="translate(0 2.346)" fill="#cdd0d2"/>
  </g>
</svg>
