<svg id="Layer_2" data-name="Layer 2" xmlns="http://www.w3.org/2000/svg" width="36" height="36" viewBox="0 0 36 36">
  <g id="Color">
    <path id="_10.Linkedin" data-name="10.Linkedin" d="M18,0A18,18,0,1,0,36,18,18,18,0,0,0,18,0ZM12.766,27.474H8.839V14.824h3.927ZM10.8,13.1a2.286,2.286,0,1,1,2.276-2.3A2.286,2.286,0,0,1,10.8,13.1ZM27.474,27.474H23.549V21.316c0-1.468-.028-3.351-2.042-3.351s-2.368,1.6-2.368,3.245v6.264h-3.91V14.824H19v1.724h.054A4.124,4.124,0,0,1,22.768,14.5c3.974,0,4.706,2.619,4.706,6.021Z" fill="#d9dadb"/>
  </g>
</svg>
