<svg xmlns="http://www.w3.org/2000/svg" width="19.611" height="17.469" viewBox="0 0 19.611 17.469">
  <path id="heart_2_" data-name="heart (2)" d="M9.705,17.269a1.138,1.138,0,0,1-.75-.282c-.784-.686-1.54-1.33-2.207-1.9l0,0a41.051,41.051,0,0,1-4.819-4.523A7.225,7.225,0,0,1,0,5.834,6.067,6.067,0,0,1,1.54,1.69,5.22,5.22,0,0,1,5.423,0a4.882,4.882,0,0,1,3.05,1.053A6.24,6.24,0,0,1,9.705,2.34a6.24,6.24,0,0,1,1.233-1.288A4.882,4.882,0,0,1,13.988,0a5.22,5.22,0,0,1,3.883,1.69,6.067,6.067,0,0,1,1.54,4.143,7.224,7.224,0,0,1-1.925,4.729,41.042,41.042,0,0,1-4.819,4.523c-.668.569-1.425,1.215-2.211,1.9A1.139,1.139,0,0,1,9.705,17.269ZM5.423,1.137A4.1,4.1,0,0,0,2.376,2.461,4.935,4.935,0,0,0,1.137,5.834a6.079,6.079,0,0,0,1.664,4,40.4,40.4,0,0,0,4.681,4.384l0,0c.67.571,1.429,1.217,2.218,1.908.795-.692,1.555-1.34,2.226-1.911A40.4,40.4,0,0,0,16.61,9.837a6.079,6.079,0,0,0,1.664-4,4.935,4.935,0,0,0-1.239-3.373,4.1,4.1,0,0,0-3.047-1.324,3.771,3.771,0,0,0-2.354.815A5.517,5.517,0,0,0,10.322,3.47a.718.718,0,0,1-1.233,0A5.512,5.512,0,0,0,7.777,1.952,3.771,3.771,0,0,0,5.423,1.137Zm0,0" transform="translate(0.1 0.1)" fill="#808386" stroke="#808386" strokeWidth="0.2"/>
</svg>
