<svg id="menu_3_" data-name="menu (3)" xmlns="http://www.w3.org/2000/svg" width="21.243" height="15.342" viewBox="0 0 21.243 15.342">
  <path id="Path_3306" data-name="Path 3306" d="M20.358,124.438H.885a.885.885,0,0,1,0-1.77H20.358a.885.885,0,0,1,0,1.77Zm0,0" transform="translate(0 -115.882)" fill="#01060d"/>
  <path id="Path_3307" data-name="Path 3307" d="M20.358,1.77H.885A.885.885,0,0,1,.885,0H20.358a.885.885,0,0,1,0,1.77Zm0,0" fill="#01060d"/>
  <path id="Path_3308" data-name="Path 3308" d="M20.358,247.1H.885a.885.885,0,0,1,0-1.77H20.358a.885.885,0,0,1,0,1.77Zm0,0" transform="translate(0 -231.76)" fill="#01060d"/>
</svg>
