<svg xmlns="http://www.w3.org/2000/svg" width="20.437" height="23.925" viewBox="0 0 20.437 23.925">
  <path id="new-arrivals_1_" data-name="new-arrivals (1)" d="M30.552,19.4a.492.492,0,0,1-.18-.478,1.586,1.586,0,0,0-1.788-1.77.489.489,0,0,1-.478-.18,1.581,1.581,0,0,0-.852-.582l-.424-2.895a2.014,2.014,0,0,0-2.222-1.672V8.608a4.6,4.6,0,0,0-9.205,0v3.215a2.014,2.014,0,0,0-2.222,1.672L11.593,24.322a2.491,2.491,0,0,0,2.451,2.833H25.966a2.475,2.475,0,0,0,2.451-2.832c-.02-.106-.035-.111.2-.1a1.586,1.586,0,0,0,1.769-1.788.491.491,0,0,1,.18-.478,1.588,1.588,0,0,0-.013-2.555ZM16.229,8.608a3.776,3.776,0,0,1,7.552,0v3.215H16.229Zm9.737,17.721H14.044a1.659,1.659,0,0,1-1.633-1.887L14,13.615a1.2,1.2,0,0,1,1.4-.965v1.774a.413.413,0,0,0,.827,0V12.65h7.552v1.774a.413.413,0,0,0,.827,0V12.65h.283a1.138,1.138,0,0,1,1.121.965l.406,2.773a1.578,1.578,0,0,0-.867.6.489.489,0,0,1-.478.18,1.577,1.577,0,0,0-1.77,1.789.489.489,0,0,1-.18.477,1.588,1.588,0,0,0,.014,2.555.492.492,0,0,1,.18.478,1.577,1.577,0,0,0,1.788,1.77.487.487,0,0,1,.478.18,1.566,1.566,0,0,0,2.017.454,1.646,1.646,0,0,1-1.634,1.461Zm4.111-5.041a1.321,1.321,0,0,0-.51,1.262.755.755,0,0,1-.842.851,1.322,1.322,0,0,0-1.259.517.775.775,0,0,1-1.216.007,1.306,1.306,0,0,0-1.061-.524.8.8,0,0,1-1.053-.828,1.321,1.321,0,0,0-.517-1.259A.754.754,0,0,1,23.3,20.7a.745.745,0,0,1,.307-.606,1.319,1.319,0,0,0,.51-1.262.751.751,0,0,1,.842-.852,1.321,1.321,0,0,0,1.259-.517.776.776,0,0,1,1.216-.007,1.32,1.32,0,0,0,1.262.51.75.75,0,0,1,.852.842,1.321,1.321,0,0,0,.517,1.259.754.754,0,0,1,.007,1.216Z" transform="translate(-11.166 -3.63)" fill="#0d6efd" stroke="#0d6efd" strokeWidth="0.8"/>
</svg>
