<svg xmlns="http://www.w3.org/2000/svg" width="27.107" height="23.125" viewBox="0 0 27.107 23.125">
  <g id="racing" transform="translate(0 -37.6)">
    <g id="Group_12187" data-name="Group 12187" transform="translate(0 37.6)">
      <g id="Group_12186" data-name="Group 12186" transform="translate(0 0)">
        <path id="Path_3312" data-name="Path 3312" d="M15.544,37.6H4.86a.878.878,0,1,0,0,1.756H9.425a11.649,11.649,0,0,0-2.577,2.2H.878a.878.878,0,0,0,0,1.757h4.7a11.54,11.54,0,0,0,.531,12.53H3.616a.878.878,0,0,0,0,1.756H7.64a11.636,11.636,0,0,0,1.784,1.375H.969a.878.878,0,0,0,0,1.756H15.544a11.563,11.563,0,1,0,0-23.125Zm0,21.369a9.806,9.806,0,1,1,9.806-9.806A9.817,9.817,0,0,1,15.544,58.969Z" transform="translate(0 -37.6)"/>
      </g>
    </g>
    <g id="Group_12189" data-name="Group 12189" transform="translate(8.371 41.989)">
      <g id="Group_12188" data-name="Group 12188">
        <path id="Path_3313" data-name="Path 3313" d="M165.28,120.507a7.171,7.171,0,0,0-4.266,12.937c.016.014.032.027.05.04s.04.028.06.04a7.16,7.16,0,0,0,8.313,0q.03-.019.06-.04c.017-.013.033-.026.05-.04a7.171,7.171,0,0,0-4.266-12.937Zm.878,1.828a5.432,5.432,0,0,1,3.933,2.859l-2.274.739a3.094,3.094,0,0,0-1.659-1.207v-2.391Zm.448,5.345a1.326,1.326,0,1,1-1.326-1.326A1.327,1.327,0,0,1,166.606,127.68Zm-2.2-5.345v2.391a3.094,3.094,0,0,0-1.659,1.207l-2.274-.739A5.432,5.432,0,0,1,164.4,122.335Zm-2.972,9.151a5.414,5.414,0,0,1-1.5-4.623l2.275.739c0,.026,0,.051,0,.077a3.066,3.066,0,0,0,.636,1.873Zm3.851,1.611a5.382,5.382,0,0,1-2.431-.577l1.4-1.934a3.075,3.075,0,0,0,2.052,0l1.4,1.934A5.384,5.384,0,0,1,165.28,133.1Zm3.851-1.611-1.4-1.933a3.066,3.066,0,0,0,.636-1.873c0-.026,0-.052,0-.077l2.275-.739a5.414,5.414,0,0,1-1.5,4.623Z" transform="translate(-158.107 -120.507)"/>
      </g>
    </g>
  </g>
</svg>
