<svg xmlns="http://www.w3.org/2000/svg" width="29.84" height="29.84" viewBox="0 0 29.84 29.84">
  <g id="search-interface-symbol_3_" data-name="search-interface-symbol (3)" transform="translate(-0.006)">
    <g id="_x34__4_" transform="translate(0.006)">
      <g id="Group_12150" data-name="Group 12150" transform="translate(0)">
        <path id="Path_3304" data-name="Path 3304" d="M29.563,28.217l-7.7-7.581a12.186,12.186,0,0,0,3.257-8.281A12.457,12.457,0,0,0,12.561,0,12.456,12.456,0,0,0,.006,12.355,12.456,12.456,0,0,0,12.561,24.71a12.626,12.626,0,0,0,7.9-2.759L28.2,29.562a.976.976,0,0,0,1.366,0A.941.941,0,0,0,29.563,28.217Zm-17-5.408A10.539,10.539,0,0,1,1.938,12.355,10.539,10.539,0,0,1,12.561,1.9,10.539,10.539,0,0,1,23.183,12.355,10.539,10.539,0,0,1,12.561,22.809Z" transform="translate(-0.006)" fill="#b3b4b6"/>
      </g>
    </g>
  </g>
</svg>
