<svg id="youtube" xmlns="http://www.w3.org/2000/svg" width="36" height="36" viewBox="0 0 36 36">
  <path id="Path_3319" data-name="Path 3319" d="M224.113,214.784l5.855-3.372-5.855-3.372Zm0,0" transform="translate(-208.355 -193.411)" fill="#d9dadb"/>
  <path id="Path_3320" data-name="Path 3320" d="M18,0A18,18,0,1,0,36,18,18,18,0,0,0,18,0ZM29.247,18.018a29.709,29.709,0,0,1-.463,5.411A2.818,2.818,0,0,1,26.8,25.412c-1.76.463-8.8.463-8.8.463s-7.023,0-8.8-.482A2.819,2.819,0,0,1,7.216,23.41,29.578,29.578,0,0,1,6.752,18a29.689,29.689,0,0,1,.463-5.41,2.876,2.876,0,0,1,1.983-2c1.76-.463,8.8-.463,8.8-.463s7.041,0,8.8.482a2.819,2.819,0,0,1,1.983,1.983A28.193,28.193,0,0,1,29.247,18.018Zm0,0" fill="#d9dadb"/>
</svg>
